# xmcd
#
# Track frame offsets:
#	150
#	14463
#	24331
#	38267
#	51401
#	62274
#	75160
#	87247
#	98856
#	113893
#	125104
#	136521
#
# Disc length: 1992 seconds
#
# Revision: 1
# Processed by: cddbd v1.5.2PL0 Copyright (c) Steve Scherf et al.
# Submitted via: audiograbber 1.83.01
#
DISCID=8507c60c
DTITLE=REGINALDO ROSSI - O QUENTE
DYEAR=1900
DGENRE=
TTITLE0=PARA DE CHORAR
TTITLE1=O TREM QUE PARTE DO ALÉM
TTITLE2=POR UM SÓ DOS SEUS CARINHOS
TTITLE3=COMPLEXO DE CACHORRO
TTITLE4=POEMINHA
TTITLE5=GAROTA DE PANO
TTITLE6=O VALENTÃO
TTITLE7=VOCÊ NÃO PODE PARAR
TTITLE8=A NAMORADA
TTITLE9=ONTEM E HOJE
TTITLE10=TODOS NÓS SOMOS COVARDES
TTITLE11=NÃO SE BRINCA COM AMOR
EXTD=
EXTT0=
EXTT1=
EXTT2=
EXTT3=
EXTT4=
EXTT5=
EXTT6=
EXTT7=
EXTT8=
EXTT9=
EXTT10=
EXTT11=
PLAYORDER=
